<svg xmlns="http://www.w3.org/2000/svg" xmlns:xlink="http://www.w3.org/1999/xlink" contentStyleType="text/css" data-diagram-type="CLASS" height="746px" preserveAspectRatio="none" style="width:1188px;height:746px;background:#FFFFFF;" version="1.1" viewBox="0 0 1188 746" width="1188px" zoomAndPan="magnify"><title>Application Usage Diagram</title><defs/><g><g class="title" data-source-line="9"><text fill="#000000" font-family="sans-serif" font-size="14" font-weight="bold" lengthAdjust="spacing" textLength="214.5391" x="480.1755" y="22.9951">Application Usage Diagram</text></g><!--class HOME--><g class="entity" data-qualified-name="HOME" data-source-line="12" id="ent0002"><rect fill="#F1F1F1" height="48" rx="2.5" ry="2.5" style="stroke:#181818;stroke-width:0.5;" width="112.3154" x="642.78" y="44.2969"/><ellipse cx="657.78" cy="60.2969" fill="#ADD1B2" rx="11" ry="11" style="stroke:#181818;stroke-width:1;"/><path d="M660.7488,65.9375 Q660.1706,66.2344 659.53,66.375 Q658.8894,66.5313 658.1863,66.5313 Q655.6863,66.5313 654.3581,64.8906 Q653.0456,63.2344 653.0456,60.1094 Q653.0456,56.9844 654.3581,55.3281 Q655.6863,53.6719 658.1863,53.6719 Q658.8894,53.6719 659.53,53.8281 Q660.1863,53.9844 660.7488,54.2813 L660.7488,57 Q660.1238,56.4219 659.53,56.1563 Q658.9363,55.875 658.3113,55.875 Q656.9675,55.875 656.28,56.9531 Q655.5925,58.0156 655.5925,60.1094 Q655.5925,62.2031 656.28,63.2813 Q656.9675,64.3438 658.3113,64.3438 Q658.9363,64.3438 659.53,64.0781 Q660.1238,63.7969 660.7488,63.2188 L660.7488,65.9375 Z " fill="#000000"/><text fill="#000000" font-family="sans-serif" font-size="14" lengthAdjust="spacing" textLength="80.3154" x="671.78" y="65.1436">Home Page</text><line style="stroke:#181818;stroke-width:0.5;" x1="643.78" x2="754.0954" y1="76.2969" y2="76.2969"/><line style="stroke:#181818;stroke-width:0.5;" x1="643.78" x2="754.0954" y1="84.2969" y2="84.2969"/></g><!--class FloorList--><g class="entity" data-qualified-name="FloorList" data-source-line="15" id="ent0003"><rect fill="#FFFFE0" height="88.8594" rx="2.5" ry="2.5" style="stroke:#181818;stroke-width:0.5;" width="155.4932" x="195.19" y="169.5969"/><ellipse cx="237.0735" cy="189.7297" fill="#ADD1B2" rx="11" ry="11" style="stroke:#181818;stroke-width:1;"/><path d="M240.0423,195.3703 Q239.4642,195.6672 238.8235,195.8078 Q238.1829,195.9641 237.4798,195.9641 Q234.9798,195.9641 233.6517,194.3234 Q232.3392,192.6672 232.3392,189.5422 Q232.3392,186.4172 233.6517,184.7609 Q234.9798,183.1047 237.4798,183.1047 Q238.1829,183.1047 238.8235,183.2609 Q239.4798,183.4172 240.0423,183.7141 L240.0423,186.4328 Q239.4173,185.8547 238.8235,185.5891 Q238.2298,185.3078 237.6048,185.3078 Q236.261,185.3078 235.5735,186.3859 Q234.886,187.4484 234.886,189.5422 Q234.886,191.6359 235.5735,192.7141 Q236.261,193.7766 237.6048,193.7766 Q238.2298,193.7766 238.8235,193.5109 Q239.4173,193.2297 240.0423,192.6516 L240.0423,195.3703 Z " fill="#000000"/><text fill="#000000" font-family="sans-serif" font-size="12" font-style="italic" lengthAdjust="spacing" textLength="35.6602" x="271.0936" y="185.7355">&#171;List&#187;</text><text fill="#000000" font-family="sans-serif" font-size="14" lengthAdjust="spacing" textLength="63.752" x="257.0477" y="201.5607">Floor List</text><line style="stroke:#181818;stroke-width:0.5;" x1="196.19" x2="349.6832" y1="209.8625" y2="209.8625"/><text fill="#000000" font-family="sans-serif" font-size="14" lengthAdjust="spacing" textLength="85.2783" x="201.19" y="226.8576">Delete Floor</text><text fill="#000000" font-family="sans-serif" font-size="14" lengthAdjust="spacing" textLength="143.4932" x="201.19" y="243.1545">Search &amp; Sort Floors</text><line style="stroke:#181818;stroke-width:0.5;" x1="196.19" x2="349.6832" y1="250.4563" y2="250.4563"/></g><!--class FurnitureList--><g class="entity" data-qualified-name="FurnitureList" data-source-line="20" id="ent0004"><rect fill="#FFFFE0" height="88.8594" rx="2.5" ry="2.5" style="stroke:#181818;stroke-width:0.5;" width="177.5459" x="468.17" y="169.5969"/><ellipse cx="506.7713" cy="189.7297" fill="#ADD1B2" rx="11" ry="11" style="stroke:#181818;stroke-width:1;"/><path d="M509.74,195.3703 Q509.1619,195.6672 508.5213,195.8078 Q507.8806,195.9641 507.1775,195.9641 Q504.6775,195.9641 503.3494,194.3234 Q502.0369,192.6672 502.0369,189.5422 Q502.0369,186.4172 503.3494,184.7609 Q504.6775,183.1047 507.1775,183.1047 Q507.8806,183.1047 508.5213,183.2609 Q509.1775,183.4172 509.74,183.7141 L509.74,186.4328 Q509.115,185.8547 508.5213,185.5891 Q507.9275,185.3078 507.3025,185.3078 Q505.9588,185.3078 505.2713,186.3859 Q504.5838,187.4484 504.5838,189.5422 Q504.5838,191.6359 505.2713,192.7141 Q505.9588,193.7766 507.3025,193.7766 Q507.9275,193.7766 508.5213,193.5109 Q509.115,193.2297 509.74,192.6516 L509.74,195.3703 Z " fill="#000000"/><text fill="#000000" font-family="sans-serif" font-size="12" font-style="italic" lengthAdjust="spacing" textLength="35.6602" x="554.7352" y="185.7355">&#171;List&#187;</text><text fill="#000000" font-family="sans-serif" font-size="14" lengthAdjust="spacing" textLength="93.0986" x="526.016" y="201.5607">Furniture List</text><line style="stroke:#181818;stroke-width:0.5;" x1="469.17" x2="644.7159" y1="209.8625" y2="209.8625"/><text fill="#000000" font-family="sans-serif" font-size="14" lengthAdjust="spacing" textLength="114.625" x="474.17" y="226.8576">Delete Furniture</text><text fill="#000000" font-family="sans-serif" font-size="14" lengthAdjust="spacing" textLength="165.5459" x="474.17" y="243.1545">Search &amp; Sort Furniture</text><line style="stroke:#181818;stroke-width:0.5;" x1="469.17" x2="644.7159" y1="250.4563" y2="250.4563"/></g><!--class ShapeList--><g class="entity" data-qualified-name="ShapeList" data-source-line="25" id="ent0005"><rect fill="#FFFFE0" height="88.8594" rx="2.5" ry="2.5" style="stroke:#181818;stroke-width:0.5;" width="164.5029" x="939.69" y="169.5969"/><ellipse cx="981.5735" cy="189.7297" fill="#ADD1B2" rx="11" ry="11" style="stroke:#181818;stroke-width:1;"/><path d="M984.5423,195.3703 Q983.9642,195.6672 983.3235,195.8078 Q982.6829,195.9641 981.9798,195.9641 Q979.4798,195.9641 978.1517,194.3234 Q976.8392,192.6672 976.8392,189.5422 Q976.8392,186.4172 978.1517,184.7609 Q979.4798,183.1047 981.9798,183.1047 Q982.6829,183.1047 983.3235,183.2609 Q983.9798,183.4172 984.5423,183.7141 L984.5423,186.4328 Q983.9173,185.8547 983.3235,185.5891 Q982.7298,185.3078 982.1048,185.3078 Q980.761,185.3078 980.0735,186.3859 Q979.386,187.4484 979.386,189.5422 Q979.386,191.6359 980.0735,192.7141 Q980.761,193.7766 982.1048,193.7766 Q982.7298,193.7766 983.3235,193.5109 Q983.9173,193.2297 984.5423,192.6516 L984.5423,195.3703 Z " fill="#000000"/><text fill="#000000" font-family="sans-serif" font-size="12" font-style="italic" lengthAdjust="spacing" textLength="35.6602" x="1020.0984" y="185.7355">&#171;List&#187;</text><text fill="#000000" font-family="sans-serif" font-size="14" lengthAdjust="spacing" textLength="72.7617" x="1001.5477" y="201.5607">Shape List</text><line style="stroke:#181818;stroke-width:0.5;" x1="940.69" x2="1103.1929" y1="209.8625" y2="209.8625"/><text fill="#000000" font-family="sans-serif" font-size="14" lengthAdjust="spacing" textLength="94.2881" x="945.69" y="226.8576">Delete Shape</text><text fill="#000000" font-family="sans-serif" font-size="14" lengthAdjust="spacing" textLength="152.5029" x="945.69" y="243.1545">Search &amp; Sort Shapes</text><line style="stroke:#181818;stroke-width:0.5;" x1="940.69" x2="1103.1929" y1="250.4563" y2="250.4563"/></g><!--class ItemList--><g class="entity" data-qualified-name="ItemList" data-source-line="30" id="ent0006"><rect fill="#FFFFE0" height="121.4531" rx="2.5" ry="2.5" style="stroke:#181818;stroke-width:0.5;" width="152.5332" x="751.67" y="153.2969"/><ellipse cx="793.5535" cy="173.4297" fill="#ADD1B2" rx="11" ry="11" style="stroke:#181818;stroke-width:1;"/><path d="M796.5223,179.0703 Q795.9442,179.3672 795.3035,179.5078 Q794.6629,179.6641 793.9598,179.6641 Q791.4598,179.6641 790.1317,178.0234 Q788.8192,176.3672 788.8192,173.2422 Q788.8192,170.1172 790.1317,168.4609 Q791.4598,166.8047 793.9598,166.8047 Q794.6629,166.8047 795.3035,166.9609 Q795.9598,167.1172 796.5223,167.4141 L796.5223,170.1328 Q795.8973,169.5547 795.3035,169.2891 Q794.7098,169.0078 794.0848,169.0078 Q792.741,169.0078 792.0535,170.0859 Q791.366,171.1484 791.366,173.2422 Q791.366,175.3359 792.0535,176.4141 Q792.741,177.4766 794.0848,177.4766 Q794.7098,177.4766 795.3035,177.2109 Q795.8973,176.9297 796.5223,176.3516 L796.5223,179.0703 Z " fill="#000000"/><text fill="#000000" font-family="sans-serif" font-size="12" font-style="italic" lengthAdjust="spacing" textLength="35.6602" x="826.0936" y="169.4355">&#171;List&#187;</text><text fill="#000000" font-family="sans-serif" font-size="14" lengthAdjust="spacing" textLength="60.792" x="813.5277" y="185.2607">Item List</text><line style="stroke:#181818;stroke-width:0.5;" x1="752.67" x2="903.2032" y1="193.5625" y2="193.5625"/><text fill="#000000" font-family="sans-serif" font-size="14" lengthAdjust="spacing" textLength="83.1455" x="757.67" y="210.5576">Create Item</text><text fill="#000000" font-family="sans-serif" font-size="14" lengthAdjust="spacing" textLength="63.4307" x="757.67" y="226.8545">Edit Item</text><text fill="#000000" font-family="sans-serif" font-size="14" lengthAdjust="spacing" textLength="82.3184" x="757.67" y="243.1514">Delete Item</text><text fill="#000000" font-family="sans-serif" font-size="14" lengthAdjust="spacing" textLength="140.5332" x="757.67" y="259.4482">Search &amp; Sort Items</text><line style="stroke:#181818;stroke-width:0.5;" x1="752.67" x2="903.2032" y1="266.75" y2="266.75"/></g><!--class FloorEditor--><g class="entity" data-qualified-name="FloorEditor" data-source-line="38" id="ent0007"><rect fill="#ADD8E6" height="88.8594" rx="2.5" ry="2.5" style="stroke:#181818;stroke-width:0.5;" width="175.2217" x="260.33" y="351.7569"/><ellipse cx="303.4594" cy="371.8897" fill="#ADD1B2" rx="11" ry="11" style="stroke:#181818;stroke-width:1;"/><path d="M306.4281,377.5303 Q305.85,377.8272 305.2094,377.9678 Q304.5688,378.1241 303.8656,378.1241 Q301.3656,378.1241 300.0375,376.4834 Q298.725,374.8272 298.725,371.7022 Q298.725,368.5772 300.0375,366.9209 Q301.3656,365.2647 303.8656,365.2647 Q304.5688,365.2647 305.2094,365.4209 Q305.8656,365.5772 306.4281,365.8741 L306.4281,368.5928 Q305.8031,368.0147 305.2094,367.7491 Q304.6156,367.4678 303.9906,367.4678 Q302.6469,367.4678 301.9594,368.5459 Q301.2719,369.6084 301.2719,371.7022 Q301.2719,373.7959 301.9594,374.8741 Q302.6469,375.9366 303.9906,375.9366 Q304.6156,375.9366 305.2094,375.6709 Q305.8031,375.3897 306.4281,374.8116 L306.4281,377.5303 Z " fill="#000000"/><text fill="#000000" font-family="sans-serif" font-size="12" font-style="italic" lengthAdjust="spacing" textLength="50.1973" x="338.9677" y="367.8955">&#171;Editor&#187;</text><text fill="#000000" font-family="sans-serif" font-size="14" lengthAdjust="spacing" textLength="80.7119" x="323.7104" y="383.7207">Floor Editor</text><line style="stroke:#181818;stroke-width:0.5;" x1="261.33" x2="434.5517" y1="392.0225" y2="392.0225"/><text fill="#000000" font-family="sans-serif" font-size="14" lengthAdjust="spacing" textLength="163.2217" x="266.33" y="409.0176">Create Corners &amp; Walls</text><text fill="#000000" font-family="sans-serif" font-size="14" lengthAdjust="spacing" textLength="95.9766" x="266.33" y="425.3145">Add Furniture</text><line style="stroke:#181818;stroke-width:0.5;" x1="261.33" x2="434.5517" y1="432.6163" y2="432.6163"/></g><!--class FurnitureEditor--><g class="entity" data-qualified-name="FurnitureEditor" data-source-line="43" id="ent0008"><rect fill="#ADD8E6" height="88.8594" rx="2.5" ry="2.5" style="stroke:#181818;stroke-width:0.5;" width="165.0225" x="507.43" y="351.7569"/><ellipse cx="532.7637" cy="371.8897" fill="#ADD1B2" rx="11" ry="11" style="stroke:#181818;stroke-width:1;"/><path d="M535.7325,377.5303 Q535.1544,377.8272 534.5137,377.9678 Q533.8731,378.1241 533.17,378.1241 Q530.67,378.1241 529.3419,376.4834 Q528.0294,374.8272 528.0294,371.7022 Q528.0294,368.5772 529.3419,366.9209 Q530.67,365.2647 533.17,365.2647 Q533.8731,365.2647 534.5137,365.4209 Q535.17,365.5772 535.7325,365.8741 L535.7325,368.5928 Q535.1075,368.0147 534.5137,367.7491 Q533.92,367.4678 533.295,367.4678 Q531.9512,367.4678 531.2637,368.5459 Q530.5762,369.6084 530.5762,371.7022 Q530.5762,373.7959 531.2637,374.8741 Q531.9512,375.9366 533.295,375.9366 Q533.92,375.9366 534.5137,375.6709 Q535.1075,375.3897 535.7325,374.8116 L535.7325,377.5303 Z " fill="#000000"/><text fill="#000000" font-family="sans-serif" font-size="12" font-style="italic" lengthAdjust="spacing" textLength="50.1973" x="578.9908" y="367.8955">&#171;Editor&#187;</text><text fill="#000000" font-family="sans-serif" font-size="14" lengthAdjust="spacing" textLength="110.0586" x="549.0601" y="383.7207">Furniture Editor</text><line style="stroke:#181818;stroke-width:0.5;" x1="508.43" x2="671.4525" y1="392.0225" y2="392.0225"/><text fill="#000000" font-family="sans-serif" font-size="14" lengthAdjust="spacing" textLength="118.2207" x="513.43" y="409.0176">Design Structure</text><text fill="#000000" font-family="sans-serif" font-size="14" lengthAdjust="spacing" textLength="153.0225" x="513.43" y="425.3145">Add Placement Zones</text><line style="stroke:#181818;stroke-width:0.5;" x1="508.43" x2="671.4525" y1="432.6163" y2="432.6163"/></g><!--class ShapeEditor--><g class="entity" data-qualified-name="ShapeEditor" data-source-line="48" id="ent0009"><rect fill="#ADD8E6" height="72.5625" rx="2.5" ry="2.5" style="stroke:#181818;stroke-width:0.5;" width="121.7217" x="954.08" y="359.8969"/><ellipse cx="969.08" cy="380.0297" fill="#ADD1B2" rx="11" ry="11" style="stroke:#181818;stroke-width:1;"/><path d="M972.0488,385.6703 Q971.4706,385.9672 970.83,386.1078 Q970.1894,386.2641 969.4863,386.2641 Q966.9863,386.2641 965.6581,384.6234 Q964.3456,382.9672 964.3456,379.8422 Q964.3456,376.7172 965.6581,375.0609 Q966.9863,373.4047 969.4863,373.4047 Q970.1894,373.4047 970.83,373.5609 Q971.4863,373.7172 972.0488,374.0141 L972.0488,376.7328 Q971.4238,376.1547 970.83,375.8891 Q970.2363,375.6078 969.6113,375.6078 Q968.2675,375.6078 967.58,376.6859 Q966.8925,377.7484 966.8925,379.8422 Q966.8925,381.9359 967.58,383.0141 Q968.2675,384.0766 969.6113,384.0766 Q970.2363,384.0766 970.83,383.8109 Q971.4238,383.5297 972.0488,382.9516 L972.0488,385.6703 Z " fill="#000000"/><text fill="#000000" font-family="sans-serif" font-size="12" font-style="italic" lengthAdjust="spacing" textLength="50.1973" x="1002.8422" y="376.0355">&#171;Editor&#187;</text><text fill="#000000" font-family="sans-serif" font-size="14" lengthAdjust="spacing" textLength="89.7217" x="983.08" y="391.8607">Shape Editor</text><line style="stroke:#181818;stroke-width:0.5;" x1="955.08" x2="1074.8017" y1="400.1625" y2="400.1625"/><text fill="#000000" font-family="sans-serif" font-size="14" lengthAdjust="spacing" textLength="102.4092" x="960.08" y="417.1576">Create Shapes</text><line style="stroke:#181818;stroke-width:0.5;" x1="955.08" x2="1074.8017" y1="424.4594" y2="424.4594"/></g><!--class FloorView--><g class="entity" data-qualified-name="FloorView" data-source-line="53" id="ent0010"><rect fill="#90EE90" height="56.2656" rx="2.5" ry="2.5" style="stroke:#181818;stroke-width:0.5;" width="104.8096" x="53.54" y="368.0469"/><ellipse cx="68.54" cy="388.1797" fill="#ADD1B2" rx="11" ry="11" style="stroke:#181818;stroke-width:1;"/><path d="M71.5087,393.8203 Q70.9306,394.1172 70.29,394.2578 Q69.6494,394.4141 68.9462,394.4141 Q66.4462,394.4141 65.1181,392.7734 Q63.8056,391.1172 63.8056,387.9922 Q63.8056,384.8672 65.1181,383.2109 Q66.4462,381.5547 68.9462,381.5547 Q69.6494,381.5547 70.29,381.7109 Q70.9462,381.8672 71.5087,382.1641 L71.5087,384.8828 Q70.8837,384.3047 70.29,384.0391 Q69.6962,383.7578 69.0712,383.7578 Q67.7275,383.7578 67.04,384.8359 Q66.3525,385.8984 66.3525,387.9922 Q66.3525,390.0859 67.04,391.1641 Q67.7275,392.2266 69.0712,392.2266 Q69.6962,392.2266 70.29,391.9609 Q70.8837,391.6797 71.5087,391.1016 L71.5087,393.8203 Z " fill="#000000"/><text fill="#000000" font-family="sans-serif" font-size="12" font-style="italic" lengthAdjust="spacing" textLength="43.4238" x="97.2329" y="384.1855">&#171;View&#187;</text><text fill="#000000" font-family="sans-serif" font-size="14" lengthAdjust="spacing" textLength="72.8096" x="82.54" y="400.0107">Floor View</text><line style="stroke:#181818;stroke-width:0.5;" x1="54.54" x2="157.3496" y1="408.3125" y2="408.3125"/><line style="stroke:#181818;stroke-width:0.5;" x1="54.54" x2="157.3496" y1="416.3125" y2="416.3125"/></g><!--class FurnitureView--><g class="entity" data-qualified-name="FurnitureView" data-source-line="56" id="ent0011"><rect fill="#90EE90" height="56.2656" rx="2.5" ry="2.5" style="stroke:#181818;stroke-width:0.5;" width="134.1563" x="38.86" y="525.7569"/><ellipse cx="53.86" cy="545.8897" fill="#ADD1B2" rx="11" ry="11" style="stroke:#181818;stroke-width:1;"/><path d="M56.8288,551.5303 Q56.2506,551.8272 55.61,551.9678 Q54.9694,552.1241 54.2663,552.1241 Q51.7663,552.1241 50.4381,550.4834 Q49.1256,548.8272 49.1256,545.7022 Q49.1256,542.5772 50.4381,540.9209 Q51.7663,539.2647 54.2663,539.2647 Q54.9694,539.2647 55.61,539.4209 Q56.2663,539.5772 56.8288,539.8741 L56.8288,542.5928 Q56.2038,542.0147 55.61,541.7491 Q55.0163,541.4678 54.3913,541.4678 Q53.0475,541.4678 52.36,542.5459 Q51.6725,543.6084 51.6725,545.7022 Q51.6725,547.7959 52.36,548.8741 Q53.0475,549.9366 54.3913,549.9366 Q55.0163,549.9366 55.61,549.6709 Q56.2038,549.3897 56.8288,548.8116 L56.8288,551.5303 Z " fill="#000000"/><text fill="#000000" font-family="sans-serif" font-size="12" font-style="italic" lengthAdjust="spacing" textLength="43.4238" x="97.2262" y="541.8955">&#171;View&#187;</text><text fill="#000000" font-family="sans-serif" font-size="14" lengthAdjust="spacing" textLength="102.1563" x="67.86" y="557.7207">Furniture View</text><line style="stroke:#181818;stroke-width:0.5;" x1="39.86" x2="172.0163" y1="566.0225" y2="566.0225"/><line style="stroke:#181818;stroke-width:0.5;" x1="39.86" x2="172.0163" y1="574.0225" y2="574.0225"/></g><!--class ZoneView--><g class="entity" data-qualified-name="ZoneView" data-source-line="59" id="ent0012"><rect fill="#F08080" height="72.5625" rx="2.5" ry="2.5" style="stroke:#181818;stroke-width:0.5;" width="197.8828" x="7" y="667.1769"/><ellipse cx="64.8799" cy="687.3097" fill="#ADD1B2" rx="11" ry="11" style="stroke:#181818;stroke-width:1;"/><path d="M67.8486,692.9503 Q67.2705,693.2472 66.6299,693.3878 Q65.9893,693.5441 65.2861,693.5441 Q62.7861,693.5441 61.458,691.9034 Q60.1455,690.2472 60.1455,687.1222 Q60.1455,683.9972 61.458,682.3409 Q62.7861,680.6847 65.2861,680.6847 Q65.9893,680.6847 66.6299,680.8409 Q67.2861,680.9972 67.8486,681.2941 L67.8486,684.0128 Q67.2236,683.4347 66.6299,683.1691 Q66.0361,682.8878 65.4111,682.8878 Q64.0674,682.8878 63.3799,683.9659 Q62.6924,685.0284 62.6924,687.1222 Q62.6924,689.2159 63.3799,690.2941 Q64.0674,691.3566 65.4111,691.3566 Q66.0361,691.3566 66.6299,691.0909 Q67.2236,690.8097 67.8486,690.2316 L67.8486,692.9503 Z " fill="#000000"/><text fill="#000000" font-family="sans-serif" font-size="12" font-style="italic" lengthAdjust="spacing" textLength="50.6836" x="96.8496" y="683.3155">&#171;Modal&#187;</text><text fill="#000000" font-family="sans-serif" font-size="14" lengthAdjust="spacing" textLength="73.623" x="85.3799" y="699.1407">Zone View</text><line style="stroke:#181818;stroke-width:0.5;" x1="8" x2="203.8828" y1="707.4425" y2="707.4425"/><text fill="#000000" font-family="sans-serif" font-size="14" lengthAdjust="spacing" textLength="185.8828" x="13" y="724.4376">Arrange Items Inside Zone</text><line style="stroke:#181818;stroke-width:0.5;" x1="8" x2="203.8828" y1="731.7394" y2="731.7394"/></g><!--class FloorItemLocation--><g class="entity" data-qualified-name="FloorItemLocation" data-source-line="63" id="ent0013"><rect fill="#90EE90" height="72.5625" rx="2.5" ry="2.5" style="stroke:#181818;stroke-width:0.5;" width="167.0576" x="744.41" y="359.8969"/><ellipse cx="759.41" cy="380.0297" fill="#ADD1B2" rx="11" ry="11" style="stroke:#181818;stroke-width:1;"/><path d="M762.3788,385.6703 Q761.8006,385.9672 761.16,386.1078 Q760.5194,386.2641 759.8163,386.2641 Q757.3163,386.2641 755.9881,384.6234 Q754.6756,382.9672 754.6756,379.8422 Q754.6756,376.7172 755.9881,375.0609 Q757.3163,373.4047 759.8163,373.4047 Q760.5194,373.4047 761.16,373.5609 Q761.8163,373.7172 762.3788,374.0141 L762.3788,376.7328 Q761.7538,376.1547 761.16,375.8891 Q760.5663,375.6078 759.9413,375.6078 Q758.5975,375.6078 757.91,376.6859 Q757.2225,377.7484 757.2225,379.8422 Q757.2225,381.9359 757.91,383.0141 Q758.5975,384.0766 759.9413,384.0766 Q760.5663,384.0766 761.16,383.8109 Q761.7538,383.5297 762.3788,382.9516 L762.3788,385.6703 Z " fill="#000000"/><text fill="#000000" font-family="sans-serif" font-size="12" font-style="italic" lengthAdjust="spacing" textLength="43.4238" x="819.2269" y="376.0355">&#171;View&#187;</text><text fill="#000000" font-family="sans-serif" font-size="14" lengthAdjust="spacing" textLength="135.0576" x="773.41" y="391.8607">Floor Item Location</text><line style="stroke:#181818;stroke-width:0.5;" x1="745.41" x2="910.4676" y1="400.1625" y2="400.1625"/><text fill="#000000" font-family="sans-serif" font-size="14" lengthAdjust="spacing" textLength="131.8311" x="750.41" y="417.1576">Highlight Furniture</text><line style="stroke:#181818;stroke-width:0.5;" x1="745.41" x2="910.4676" y1="424.4594" y2="424.4594"/></g><!--class FurnitureItemLocation--><g class="entity" data-qualified-name="FurnitureItemLocation" data-source-line="67" id="ent0014"><rect fill="#90EE90" height="72.5625" rx="2.5" ry="2.5" style="stroke:#181818;stroke-width:0.5;" width="196.4043" x="729.74" y="517.6069"/><ellipse cx="744.74" cy="537.7397" fill="#ADD1B2" rx="11" ry="11" style="stroke:#181818;stroke-width:1;"/><path d="M747.7088,543.3803 Q747.1306,543.6772 746.49,543.8178 Q745.8494,543.9741 745.1463,543.9741 Q742.6463,543.9741 741.3181,542.3334 Q740.0056,540.6772 740.0056,537.5522 Q740.0056,534.4272 741.3181,532.7709 Q742.6463,531.1147 745.1463,531.1147 Q745.8494,531.1147 746.49,531.2709 Q747.1463,531.4272 747.7088,531.7241 L747.7088,534.4428 Q747.0838,533.8647 746.49,533.5991 Q745.8963,533.3178 745.2713,533.3178 Q743.9275,533.3178 743.24,534.3959 Q742.5525,535.4584 742.5525,537.5522 Q742.5525,539.6459 743.24,540.7241 Q743.9275,541.7866 745.2713,541.7866 Q745.8963,541.7866 746.49,541.5209 Q747.0838,541.2397 747.7088,540.6616 L747.7088,543.3803 Z " fill="#000000"/><text fill="#000000" font-family="sans-serif" font-size="12" font-style="italic" lengthAdjust="spacing" textLength="43.4238" x="819.2302" y="533.7455">&#171;View&#187;</text><text fill="#000000" font-family="sans-serif" font-size="14" lengthAdjust="spacing" textLength="164.4043" x="758.74" y="549.5707">Furniture Item Location</text><line style="stroke:#181818;stroke-width:0.5;" x1="730.74" x2="925.1443" y1="557.8725" y2="557.8725"/><text fill="#000000" font-family="sans-serif" font-size="14" lengthAdjust="spacing" textLength="103.2979" x="735.74" y="574.8676">Highlight Zone</text><line style="stroke:#181818;stroke-width:0.5;" x1="730.74" x2="925.1443" y1="582.1694" y2="582.1694"/></g><!--class ZoneItemLocation--><g class="entity" data-qualified-name="ZoneItemLocation" data-source-line="71" id="ent0015"><rect fill="#F08080" height="72.5625" rx="2.5" ry="2.5" style="stroke:#181818;stroke-width:0.5;" width="167.8711" x="744.01" y="667.1769"/><ellipse cx="759.01" cy="687.3097" fill="#ADD1B2" rx="11" ry="11" style="stroke:#181818;stroke-width:1;"/><path d="M761.9788,692.9503 Q761.4006,693.2472 760.76,693.3878 Q760.1194,693.5441 759.4163,693.5441 Q756.9163,693.5441 755.5881,691.9034 Q754.2756,690.2472 754.2756,687.1222 Q754.2756,683.9972 755.5881,682.3409 Q756.9163,680.6847 759.4163,680.6847 Q760.1194,680.6847 760.76,680.8409 Q761.4163,680.9972 761.9788,681.2941 L761.9788,684.0128 Q761.3538,683.4347 760.76,683.1691 Q760.1663,682.8878 759.5413,682.8878 Q758.1975,682.8878 757.51,683.9659 Q756.8225,685.0284 756.8225,687.1222 Q756.8225,689.2159 757.51,690.2941 Q758.1975,691.3566 759.5413,691.3566 Q760.1663,691.3566 760.76,691.0909 Q761.3538,690.8097 761.9788,690.2316 L761.9788,692.9503 Z " fill="#000000"/><text fill="#000000" font-family="sans-serif" font-size="12" font-style="italic" lengthAdjust="spacing" textLength="50.6836" x="815.6038" y="683.3155">&#171;Modal&#187;</text><text fill="#000000" font-family="sans-serif" font-size="14" lengthAdjust="spacing" textLength="135.8711" x="773.01" y="699.1407">Zone Item Location</text><line style="stroke:#181818;stroke-width:0.5;" x1="745.01" x2="910.8811" y1="707.4425" y2="707.4425"/><text fill="#000000" font-family="sans-serif" font-size="14" lengthAdjust="spacing" textLength="135.3584" x="750.01" y="724.4376">Highlight Item Path</text><line style="stroke:#181818;stroke-width:0.5;" x1="745.01" x2="910.8811" y1="731.7394" y2="731.7394"/></g><!--link HOME to FloorList--><g class="link" data-entity-1="ent0002" data-entity-2="ent0003" data-link-type="dependency" data-source-line="77" id="lnk16"><path codeLine="77" d="M642.54,70.6969 C578.52,74.1269 472.2,85.4669 388.94,122.2969 C363.22,133.6769 342.754,148.132 322.564,165.362" fill="none" id="HOME-to-FloorList" style="stroke:#181818;stroke-width:1;"/><polygon fill="#181818" points="318,169.2569,327.4426,166.4572,321.8033,166.0111,322.2494,160.3719,318,169.2569" style="stroke:#181818;stroke-width:1;"/></g><!--link HOME to FurnitureList--><g class="link" data-entity-1="ent0002" data-entity-2="ent0004" data-link-type="dependency" data-source-line="78" id="lnk17"><path codeLine="78" d="M675.81,92.7069 C655.38,113.3969 629.2572,139.8289 604.3472,165.0389" fill="none" id="HOME-to-FurnitureList" style="stroke:#181818;stroke-width:1;"/><polygon fill="#181818" points="600.13,169.3069,609.3011,165.7164,603.6443,165.7502,603.6104,160.0935,600.13,169.3069" style="stroke:#181818;stroke-width:1;"/></g><!--link HOME to ShapeList--><g class="link" data-entity-1="ent0002" data-entity-2="ent0005" data-link-type="dependency" data-source-line="79" id="lnk18"><path codeLine="79" d="M755.54,87.4969 C801.32,102.9469 866.98,126.7969 921.94,153.2969 C931.87,158.0869 936.8745,160.5983 946.8345,166.2183" fill="none" id="HOME-to-ShapeList" style="stroke:#181818;stroke-width:1;"/><polygon fill="#181818" points="952.06,169.1669,946.1874,161.2604,947.7054,166.7098,942.256,168.2277,952.06,169.1669" style="stroke:#181818;stroke-width:1;"/></g><!--link HOME to ItemList--><g class="link" data-entity-1="ent0002" data-entity-2="ent0006" data-link-type="dependency" data-source-line="80" id="lnk19"><path codeLine="80" d="M719.95,92.7069 C734.66,109.0969 751.0126,127.3114 770.0826,148.5614" fill="none" id="HOME-to-ItemList" style="stroke:#181818;stroke-width:1;"/><polygon fill="#181818" points="774.09,153.0269,771.0559,143.657,770.7505,149.3056,765.1019,149.0002,774.09,153.0269" style="stroke:#181818;stroke-width:1;"/></g><!--link HOME to FloorEditor--><g class="link" data-entity-1="ent0002" data-entity-2="ent0007" data-link-type="dependency" data-source-line="81" id="lnk20"><path codeLine="81" d="M642.49,74.1969 C586.75,81.9469 502.58,101.9169 450.94,153.2969 C394.81,209.1469 426.72,250.1369 392.94,321.7569 C388.29,331.6269 385.7106,336.6881 379.9906,346.2481" fill="none" id="HOME-to-FloorEditor" style="stroke:#181818;stroke-width:1;"/><polygon fill="#181818" points="376.91,351.3969,384.9635,345.7275,379.4772,347.1062,378.0985,341.62,376.91,351.3969" style="stroke:#181818;stroke-width:1;"/></g><!--link HOME to FurnitureEditor--><g class="link" data-entity-1="ent0002" data-entity-2="ent0008" data-link-type="dependency" data-source-line="82" id="lnk21"><path codeLine="82" d="M702.52,92.4969 C708.53,138.9769 716.43,245.5969 676.94,321.7569 C671.3,332.6269 667.5613,338.3331 658.6613,347.1131" fill="none" id="HOME-to-FurnitureEditor" style="stroke:#181818;stroke-width:1;"/><polygon fill="#181818" points="654.39,351.3269,663.6062,347.8538,657.9494,347.8154,657.9878,342.1587,654.39,351.3269" style="stroke:#181818;stroke-width:1;"/></g><!--link HOME to ShapeEditor--><g class="link" data-entity-1="ent0002" data-entity-2="ent0009" data-link-type="dependency" data-source-line="83" id="lnk22"><path codeLine="83" d="M755.35,72.6269 C858.7,79.9369 1072.39,101.1069 1121.94,153.2969 C1173.93,208.0569 1181.89,256.4769 1143.94,321.7569 C1129.11,347.2569 1107.2241,362.2028 1081.4941,373.6228" fill="none" id="HOME-to-ShapeEditor" style="stroke:#181818;stroke-width:1;"/><polygon fill="#181818" points="1076.01,376.0569,1085.8589,376.0618,1080.5801,374.0285,1082.6134,368.7497,1076.01,376.0569" style="stroke:#181818;stroke-width:1;"/></g><!--link FloorList to FloorView--><g class="link" data-entity-1="ent0003" data-entity-2="ent0010" data-link-type="dependency" data-source-line="86" id="lnk23"><path codeLine="86" d="M194.74,249.8169 C170.91,263.8169 146.63,282.0969 129.94,304.7569 C116.45,323.0569 111.3421,342.4407 108.7521,361.6407" fill="none" id="FloorList-to-FloorView" style="stroke:#181818;stroke-width:1;"/><polygon fill="#181818" points="107.95,367.5869,113.1173,359.2024,108.6184,362.6318,105.1891,358.1329,107.95,367.5869" style="stroke:#181818;stroke-width:1;"/><text fill="#000000" font-family="sans-serif" font-size="13" lengthAdjust="spacing" textLength="125.0234" x="130.94" y="317.8238">open selected floor</text></g><!--link FloorList to FloorEditor--><g class="link" data-entity-1="ent0003" data-entity-2="ent0007" data-link-type="dependency" data-source-line="87" id="lnk24"><path codeLine="87" d="M263.49,258.9469 C261.24,278.8669 261.52,302.2669 269.94,321.7569 C274.66,332.6769 277.8445,338.315 286.0345,347.245" fill="none" id="FloorList-to-FloorEditor" style="stroke:#181818;stroke-width:1;"/><polygon fill="#181818" points="290.09,351.6669,286.9547,342.3304,286.7104,347.982,281.0589,347.7377,290.09,351.6669" style="stroke:#181818;stroke-width:1;"/><text fill="#000000" font-family="sans-serif" font-size="13" lengthAdjust="spacing" textLength="117.5396" x="270.94" y="317.8238">edit selected floor</text></g><!--link FurnitureList to FurnitureEditor--><g class="link" data-entity-1="ent0004" data-entity-2="ent0008" data-link-type="dependency" data-source-line="88" id="lnk25"><path codeLine="88" d="M532.14,258.8969 C524.31,278.3769 519.42,301.4469 526.94,321.7569 C530.85,332.3069 533.375,337.6086 540.365,346.7086" fill="none" id="FurnitureList-to-FurnitureEditor" style="stroke:#181818;stroke-width:1;"/><polygon fill="#181818" points="544.02,351.4669,541.7097,341.8928,540.9742,347.5017,535.3654,346.7661,544.02,351.4669" style="stroke:#181818;stroke-width:1;"/><text fill="#000000" font-family="sans-serif" font-size="13" lengthAdjust="spacing" textLength="144.79" x="527.94" y="317.8238">edit selected furniture</text></g><!--link ShapeList to ShapeEditor--><g class="link" data-entity-1="ent0005" data-entity-2="ent0009" data-link-type="dependency" data-source-line="89" id="lnk26"><path codeLine="89" d="M1015.5,258.7369 C1013.64,273.3369 1011.86,289.7169 1010.94,304.7569 C1010.48,312.2969 1010.74,314.1969 1010.94,321.7569 C1011.28,334.1369 1011.5867,341.6867 1012.2767,353.7267" fill="none" id="ShapeList-to-ShapeEditor" style="stroke:#181818;stroke-width:1;"/><polygon fill="#181818" points="1012.62,359.7169,1016.0985,350.5028,1012.3339,354.7251,1008.1116,350.9605,1012.62,359.7169" style="stroke:#181818;stroke-width:1;"/><text fill="#000000" font-family="sans-serif" font-size="13" lengthAdjust="spacing" textLength="127.3276" x="1011.94" y="317.8238">edit selected shape</text></g><!--link FloorView to FurnitureView--><g class="link" data-entity-1="ent0010" data-entity-2="ent0011" data-link-type="dependency" data-source-line="90" id="lnk27"><path codeLine="90" d="M105.94,424.6569 C105.94,453.0369 105.94,491.0569 105.94,519.4269" fill="none" id="FloorView-to-FurnitureView" style="stroke:#181818;stroke-width:1;"/><polygon fill="#181818" points="105.94,525.4269,109.94,516.4269,105.94,520.4269,101.94,516.4269,105.94,525.4269" style="stroke:#181818;stroke-width:1;"/><text fill="#000000" font-family="sans-serif" font-size="13" lengthAdjust="spacing" textLength="152.2739" x="106.94" y="483.6738">open selected furniture</text></g><!--link FurnitureView to ZoneView--><g class="link" data-entity-1="ent0011" data-entity-2="ent0012" data-link-type="dependency" data-source-line="91" id="lnk28"><path codeLine="91" d="M105.94,582.3069 C105.94,606.1369 105.94,634.8369 105.94,660.8269" fill="none" id="FurnitureView-to-ZoneView" style="stroke:#181818;stroke-width:1;"/><polygon fill="#181818" points="105.94,666.8269,109.94,657.8269,105.94,661.8269,101.94,657.8269,105.94,666.8269" style="stroke:#181818;stroke-width:1;"/><text fill="#000000" font-family="sans-serif" font-size="13" lengthAdjust="spacing" textLength="126.5977" x="106.94" y="633.2438">open selected zone</text></g><!--link ItemList to FloorItemLocation--><g class="link" data-entity-1="ent0006" data-entity-2="ent0013" data-link-type="dependency" data-source-line="92" id="lnk29"><path codeLine="92" d="M827.94,275.0169 C827.94,303.0569 827.94,329.5069 827.94,353.6069" fill="none" id="ItemList-to-FloorItemLocation" style="stroke:#181818;stroke-width:1;"/><polygon fill="#181818" points="827.94,359.6069,831.94,350.6069,827.94,354.6069,823.94,350.6069,827.94,359.6069" style="stroke:#181818;stroke-width:1;"/><text fill="#000000" font-family="sans-serif" font-size="13" lengthAdjust="spacing" textLength="122.7256" x="828.94" y="317.8238">show item position</text></g><!--link FloorItemLocation to FurnitureItemLocation--><g class="link" data-entity-1="ent0013" data-entity-2="ent0014" data-link-type="dependency" data-source-line="93" id="lnk30"><path codeLine="93" d="M827.94,432.9069 C827.94,458.2269 827.94,486.0569 827.94,511.3369" fill="none" id="FloorItemLocation-to-FurnitureItemLocation" style="stroke:#181818;stroke-width:1;"/><polygon fill="#181818" points="827.94,517.3369,831.94,508.3369,827.94,512.3369,823.94,508.3369,827.94,517.3369" style="stroke:#181818;stroke-width:1;"/><text fill="#000000" font-family="sans-serif" font-size="13" lengthAdjust="spacing" textLength="152.2739" x="828.94" y="483.6738">open selected furniture</text></g><!--link FurnitureItemLocation to ZoneItemLocation--><g class="link" data-entity-1="ent0014" data-entity-2="ent0015" data-link-type="dependency" data-source-line="94" id="lnk31"><path codeLine="94" d="M827.94,590.6169 C827.94,613.7269 827.94,637.7069 827.94,660.8069" fill="none" id="FurnitureItemLocation-to-ZoneItemLocation" style="stroke:#181818;stroke-width:1;"/><polygon fill="#181818" points="827.94,666.8069,831.94,657.8069,827.94,661.8069,823.94,657.8069,827.94,666.8069" style="stroke:#181818;stroke-width:1;"/><text fill="#000000" font-family="sans-serif" font-size="13" lengthAdjust="spacing" textLength="126.5977" x="828.94" y="633.2438">open selected zone</text></g><?plantuml-src ZLGzRzim4DtrAmuPwYb3Xov6OC1nqhf0qXersgBPM8cMYT2aG58rqA3_lJnI52cARgf9z_ZuxeDtfv-Pw8WY9wWvqHfUAh3VBQcVMoLxqMmab-hcvhvXHghL2XvOUpItlATbtWFJ9h1-KCxbkSpxnkWvy3ueIaMPzYWRmWDl8nNXZlV5KvIW2jw-g_vKbM66KrXt7MSrCKmA-Af9I-6EaTOcLrKBsCeJXSw2bS_qoW4x2rm1qR3z_7YFDCn01yfxBgLoaECu4oqOCyLwtL5E3VMdrjnJekeZl86zLCQZ6cCCchqIpFIA9he1kgmT67FzyIIws1z9byWxywAqEvt9EZGD-wEXfoY9rbnneoYnYdXeBUoPy3_u6gofAmITfmNuDilAxy7u0Dw6f2aJtxuhjDN-JZZNzc3TDCKYnNT87GImxEIEQjOAs1lLryDheFoEavgUg33m9CMaQlub4WSE-6S6iV8Bm379ge5Gh0LQC8xJIp6zU2D0bszX_F42MWCtJABV3skbY6ZzUzfc49errB7J05oulcsa7yeOj-kV0KqZ0TZQKUSuxgyyMa4udFsFU1QiotikYN2cbXOYohchEsAEg6aVxXFvnLf_vQ3aoIsV2bSCN5-luXv9e7G5H7WStGY5qSlaV2iL1FE3f0EpI7zISxQh60wzg14WtErBNSMzDxfpRR44sLc-jiDT6zh0mMt00dje-2LGt0avVxBz2h7FxusT4LTRbjhiZdPhBiO-yLFEPlGovU7DSJBoIx-nhyRjE1PWqaHB6umy0yEUwQHc25PpsYJ2JE3LI6TAirOkHVuN?></g></svg>
